<svg xmlns="http://www.w3.org/2000/svg" xmlns:xlink="http://www.w3.org/1999/xlink" width="500" zoomAndPan="magnify" viewBox="0 0 375 374.999991" height="500" preserveAspectRatio="xMidYMid meet" version="1.0"><defs><clipPath id="484c32100c"><path d="M 148 14.355469 L 227 14.355469 L 227 93 L 148 93 Z M 148 14.355469 " clip-rule="nonzero"/></clipPath><clipPath id="27ff9e36a9"><path d="M 44.003906 105 L 331 105 L 331 360.855469 L 44.003906 360.855469 Z M 44.003906 105 " clip-rule="nonzero"/></clipPath></defs><g clip-path="url(#484c32100c)"><path fill="#5271ff" d="M 148.296875 56.015625 C 148.332031 56.675781 148.339844 57.34375 148.410156 57.996094 C 148.445312 58.320312 148.519531 58.632812 148.5625 58.957031 C 150.429688 72.914062 159.636719 84.476562 172.28125 89.710938 C 172.859375 89.953125 173.460938 90.136719 174.050781 90.351562 C 174.636719 90.5625 175.210938 90.796875 175.808594 90.980469 C 179.125 92.003906 182.640625 92.5625 186.265625 92.667969 C 186.65625 92.683594 187.035156 92.730469 187.425781 92.730469 C 187.453125 92.730469 187.476562 92.726562 187.5 92.726562 C 187.523438 92.726562 187.546875 92.730469 187.570312 92.730469 C 187.960938 92.730469 188.34375 92.683594 188.734375 92.667969 C 192.359375 92.5625 195.871094 92.003906 199.1875 90.980469 C 199.785156 90.796875 200.355469 90.5625 200.9375 90.355469 C 201.53125 90.140625 202.136719 89.953125 202.714844 89.710938 C 215.371094 84.472656 224.585938 72.894531 226.441406 58.921875 C 226.480469 58.613281 226.550781 58.3125 226.585938 58 C 226.660156 57.324219 226.667969 56.628906 226.707031 55.945312 C 226.742188 55.316406 226.8125 54.695312 226.816406 54.058594 C 226.816406 54.046875 226.8125 54.035156 226.8125 54.019531 C 226.816406 54.007812 226.816406 53.996094 226.816406 53.984375 C 226.820312 53.328125 226.753906 52.683594 226.726562 52.03125 C 226.695312 51.386719 226.699219 50.738281 226.636719 50.101562 C 224.78125 30.832031 208.445312 15.238281 189.042969 14.535156 C 188.710938 14.519531 188.386719 14.46875 188.050781 14.460938 C 187.867188 14.460938 187.683594 14.484375 187.5 14.480469 C 187.3125 14.484375 187.132812 14.460938 186.945312 14.460938 C 186.609375 14.46875 186.285156 14.519531 185.953125 14.535156 C 166.550781 15.238281 150.214844 30.832031 148.363281 50.101562 C 148.296875 50.761719 148.300781 51.4375 148.269531 52.105469 C 148.242188 52.730469 148.175781 53.351562 148.179688 53.984375 C 148.179688 53.996094 148.183594 54.007812 148.183594 54.019531 C 148.183594 54.03125 148.179688 54.046875 148.179688 54.058594 C 148.1875 54.71875 148.257812 55.363281 148.296875 56.015625 " fill-opacity="1" fill-rule="nonzero"/></g><g clip-path="url(#27ff9e36a9)"><path fill="#5271ff" d="M 187.484375 296.253906 C 179.035156 296.253906 172.199219 289.390625 172.199219 280.945312 C 172.199219 272.496094 179.035156 265.632812 187.484375 265.632812 C 195.953125 265.632812 202.792969 272.496094 202.792969 280.945312 C 202.792969 289.390625 195.953125 296.253906 187.484375 296.253906 Z M 305.085938 105.71875 L 265.203125 105.71875 C 270.082031 110.832031 274.339844 116.898438 278.050781 124.070312 L 305.085938 124.070312 C 309.234375 124.070312 312.605469 127.441406 312.605469 131.613281 L 312.605469 252.484375 C 312.605469 256.632812 309.234375 260 305.085938 260 L 69.90625 260 C 65.730469 260 62.386719 256.632812 62.386719 252.484375 L 62.386719 131.613281 C 62.386719 127.441406 65.730469 124.070312 69.90625 124.070312 L 96.9375 124.070312 C 100.648438 116.898438 104.910156 110.832031 109.785156 105.71875 L 69.90625 105.71875 C 55.625 105.71875 44.011719 117.335938 44.011719 131.613281 L 44.011719 275.4375 C 44.011719 289.691406 55.625 301.304688 69.90625 301.304688 L 162.921875 301.304688 L 162.921875 319.304688 C 142.359375 322.699219 128.027344 330.214844 128.027344 338.964844 C 128.027344 350.882812 154.652344 360.535156 187.484375 360.535156 C 220.316406 360.535156 246.964844 350.882812 246.964844 338.964844 C 246.964844 330.214844 232.632812 322.699219 212.070312 319.304688 L 212.070312 301.304688 L 305.085938 301.304688 C 319.367188 301.304688 330.980469 289.691406 330.980469 275.4375 L 330.980469 131.613281 C 330.980469 117.335938 319.367188 105.71875 305.085938 105.71875 " fill-opacity="1" fill-rule="nonzero"/></g><path fill="#5271ff" d="M 100.425781 210.625 C 100.28125 214.703125 103.535156 218.09375 107.613281 218.09375 L 122.363281 218.09375 C 126.253906 218.09375 129.433594 214.996094 129.539062 211.109375 C 129.761719 202.851562 130.046875 194.984375 130.429688 188.914062 C 130.484375 187.824219 130.621094 186.761719 130.730469 185.699219 C 131.4375 180.851562 132.390625 176 133.398438 171.148438 C 134.597656 166.109375 135.933594 161.070312 137.050781 156 C 137.320312 155.863281 137.59375 155.753906 137.921875 155.753906 C 137.976562 155.753906 138.058594 155.78125 138.113281 155.78125 C 138.195312 155.78125 138.300781 155.808594 138.410156 155.808594 C 139.285156 155.917969 139.910156 156.652344 139.910156 157.527344 L 139.910156 210.914062 C 139.910156 214.878906 143.125 218.09375 147.089844 218.09375 L 227.902344 218.09375 C 231.867188 218.09375 235.082031 214.878906 235.082031 210.914062 L 235.082031 157.527344 C 235.082031 156.652344 235.707031 155.917969 236.578125 155.808594 C 236.6875 155.808594 236.769531 155.78125 236.878906 155.78125 C 237.261719 155.726562 237.613281 155.835938 237.914062 156 L 237.941406 156 C 239.058594 161.070312 240.394531 166.109375 241.589844 171.148438 C 242.539062 175.703125 243.414062 180.253906 244.125 184.804688 C 244.246094 185.925781 244.441406 187.753906 244.558594 188.871094 C 244.921875 194.941406 245.21875 202.820312 245.433594 211.09375 C 245.539062 214.980469 248.71875 218.09375 252.609375 218.09375 L 267.378906 218.09375 C 271.457031 218.09375 274.710938 214.703125 274.566406 210.625 C 274.304688 203.527344 273.808594 196.445312 272.980469 189.402344 C 271.207031 171.722656 267.667969 154.367188 259.683594 137.992188 C 255.40625 128.671875 250.257812 121.726562 243.960938 116.929688 C 235.953125 110.582031 226.417969 107.777344 215.136719 108.429688 C 212.601562 108.429688 216.007812 150.6875 200.125 170.03125 C 198.171875 157.21875 196.273438 144.796875 194.425781 132.824219 L 196.667969 132.824219 L 196.667969 123.507812 C 196.667969 121.125 194.738281 119.199219 192.363281 119.199219 L 182.625 119.199219 C 180.246094 119.199219 178.316406 121.125 178.316406 123.507812 L 178.316406 132.824219 L 180.566406 132.824219 C 178.71875 144.796875 176.816406 157.21875 174.867188 170.03125 C 158.984375 150.6875 162.390625 108.429688 159.855469 108.429688 C 148.574219 107.777344 139.039062 110.582031 131.03125 116.929688 C 124.734375 121.726562 119.585938 128.671875 115.308594 137.992188 C 107.324219 154.367188 103.78125 171.722656 102.011719 189.402344 C 101.183594 196.445312 100.683594 203.527344 100.425781 210.625 " fill-opacity="1" fill-rule="nonzero"/></svg>