<svg xmlns="http://www.w3.org/2000/svg" xmlns:xlink="http://www.w3.org/1999/xlink" width="1910" zoomAndPan="magnify" viewBox="0 0 1432.5 269.999989" height="360" preserveAspectRatio="xMidYMid meet" version="1.0"><defs><g/><clipPath id="7b5abe0bb3"><path d="M 205 0.046875 L 379.863281 0.046875 L 379.863281 175 L 205 175 Z M 205 0.046875 " clip-rule="nonzero"/></clipPath><clipPath id="6b2833bdb8"><path d="M 161.335938 100.605469 L 350.945312 100.605469 L 350.945312 269.953125 L 161.335938 269.953125 Z M 161.335938 100.605469 " clip-rule="nonzero"/></clipPath><clipPath id="18086e8b6f"><path d="M 70.222656 23 L 222 23 L 222 175 L 70.222656 175 Z M 70.222656 23 " clip-rule="nonzero"/></clipPath></defs><g clip-path="url(#7b5abe0bb3)"><path fill="#000000" d="M 225 0.046875 L 379.71875 154.765625 L 360.289062 174.191406 L 225 38.898438 L 205.570312 19.472656 L 225 0.046875 " fill-opacity="1" fill-rule="nonzero"/></g><g clip-path="url(#6b2833bdb8)"><path fill="#ff3131" d="M 204.457031 163.679688 L 224.964844 143.171875 L 267.527344 100.613281 L 350.699219 183.785156 L 331.273438 203.210938 L 267.527344 139.46875 L 200.425781 206.570312 L 224.976562 231.109375 L 249.511719 206.574219 L 228.179688 185.242188 L 247.605469 165.816406 L 288.367188 206.574219 L 224.976562 269.960938 L 161.566406 206.574219 L 197.886719 170.253906 L 204.457031 163.679688 " fill-opacity="1" fill-rule="nonzero"/></g><path fill="#ff3131" d="M 182.40625 100.613281 L 221.753906 139.960938 L 202.324219 159.390625 L 182.40625 139.46875 L 118.660156 203.214844 L 99.230469 183.785156 L 182.40625 100.613281 " fill-opacity="1" fill-rule="nonzero"/><g clip-path="url(#18086e8b6f)"><path fill="#000000" d="M 201.945312 23.097656 L 210.359375 31.511719 L 221.375 42.523438 L 89.640625 174.199219 L 70.214844 154.765625 L 201.945312 23.097656 " fill-opacity="1" fill-rule="nonzero"/></g><g fill="#000000" fill-opacity="1"><g transform="translate(496.785485, 87.185333)"><g><path d="M 21.34375 -16.40625 C 20.707031 -16.414062 20.238281 -16.21875 19.9375 -15.8125 C 19.644531 -15.40625 19.507812 -14.707031 19.53125 -13.71875 L 19.59375 -2.53125 C 19.59375 -2.09375 19.578125 -1.578125 19.546875 -0.984375 L 21.375 -1.078125 L 21.296875 0 L 15.890625 0 L 15.9375 -0.8125 L 16.140625 -0.8125 C 16.753906 -0.863281 17.160156 -1.113281 17.359375 -1.5625 C 17.554688 -2.007812 17.65625 -2.734375 17.65625 -3.734375 L 17.65625 -12.15625 C 17.65625 -13.082031 17.664062 -13.785156 17.6875 -14.265625 L 17.640625 -14.265625 L 16.765625 -12.375 L 10.921875 0.25 L 10.203125 0.25 C 9.566406 -1.394531 8.65625 -3.851562 7.46875 -7.125 C 7.144531 -8.082031 6.640625 -9.492188 5.953125 -11.359375 L 5.78125 -11.828125 C 5.46875 -12.703125 5.164062 -13.617188 4.875 -14.578125 L 4.828125 -14.578125 C 4.753906 -13.140625 4.644531 -11.519531 4.5 -9.71875 L 3.859375 -3.078125 C 3.765625 -2.085938 3.679688 -1.390625 3.609375 -0.984375 L 5.484375 -1.078125 L 5.40625 0 L 0.734375 0 L 0.78125 -0.8125 C 1.257812 -0.8125 1.617188 -0.910156 1.859375 -1.109375 C 2.109375 -1.304688 2.28125 -1.554688 2.375 -1.859375 C 2.46875 -2.160156 2.535156 -2.566406 2.578125 -3.078125 L 3.90625 -16.234375 L 2.140625 -16.15625 L 2.1875 -17.21875 L 5.859375 -17.21875 C 6.285156 -16.132812 7.21875 -13.640625 8.65625 -9.734375 C 9.914062 -6.335938 10.757812 -4.09375 11.1875 -3 L 11.234375 -3 C 11.546875 -3.65625 11.941406 -4.53125 12.421875 -5.625 L 12.671875 -6.171875 C 13.097656 -7.140625 13.960938 -8.984375 15.265625 -11.703125 C 16.148438 -13.546875 17.015625 -15.382812 17.859375 -17.21875 L 21.390625 -17.21875 Z M 21.34375 -16.40625 "/></g></g></g><g fill="#000000" fill-opacity="1"><g transform="translate(522.288512, 87.185333)"><g><path d="M 8.09375 -12.5625 C 9.207031 -12.5625 10.304688 -12.425781 11.390625 -12.15625 C 10.671875 -6.800781 10.3125 -3.519531 10.3125 -2.3125 C 10.3125 -1.882812 10.347656 -1.550781 10.421875 -1.3125 C 10.503906 -1.070312 10.695312 -0.953125 11 -0.953125 C 11.300781 -0.953125 11.613281 -1.148438 11.9375 -1.546875 C 12.269531 -1.941406 12.550781 -2.539062 12.78125 -3.34375 L 13.484375 -3.203125 C 13.398438 -2.742188 13.222656 -2.242188 12.953125 -1.703125 C 12.679688 -1.160156 12.316406 -0.695312 11.859375 -0.3125 C 11.410156 0.0703125 10.882812 0.265625 10.28125 0.265625 C 9.0625 0.265625 8.453125 -0.46875 8.453125 -1.9375 C 8.453125 -2.664062 8.601562 -3.765625 8.90625 -5.234375 L 8.828125 -5.234375 C 8.140625 -3.066406 7.382812 -1.609375 6.5625 -0.859375 C 5.75 -0.109375 4.90625 0.265625 4.03125 0.265625 C 3.082031 0.265625 2.320312 -0.078125 1.75 -0.765625 C 1.1875 -1.453125 0.90625 -2.535156 0.90625 -4.015625 C 0.90625 -5.585938 1.175781 -7.019531 1.71875 -8.3125 C 2.257812 -9.601562 3.070312 -10.632812 4.15625 -11.40625 C 5.238281 -12.175781 6.550781 -12.5625 8.09375 -12.5625 Z M 7.328125 -11.6875 C 6.378906 -11.6875 5.578125 -11.34375 4.921875 -10.65625 C 4.265625 -9.976562 3.773438 -9.085938 3.453125 -7.984375 C 3.128906 -6.878906 2.96875 -5.691406 2.96875 -4.421875 C 2.96875 -2.015625 3.503906 -0.8125 4.578125 -0.8125 C 5.296875 -0.8125 6.015625 -1.375 6.734375 -2.5 C 7.460938 -3.632812 8.0625 -5.035156 8.53125 -6.703125 C 9.007812 -8.367188 9.25 -9.929688 9.25 -11.390625 C 8.757812 -11.585938 8.117188 -11.6875 7.328125 -11.6875 Z M 7.328125 -11.6875 "/></g></g></g><g fill="#000000" fill-opacity="1"><g transform="translate(538.716696, 87.185333)"><g><path d="M 9.515625 -12.5625 C 10.023438 -12.5625 10.4375 -12.4375 10.75 -12.1875 C 11.070312 -11.9375 11.234375 -11.585938 11.234375 -11.140625 C 11.234375 -10.828125 11.125 -10.550781 10.90625 -10.3125 C 10.695312 -10.070312 10.429688 -9.953125 10.109375 -9.953125 C 9.816406 -9.953125 9.5625 -10.039062 9.34375 -10.21875 C 9.132812 -10.40625 9.015625 -10.664062 8.984375 -11 C 8.910156 -11.007812 8.816406 -11.015625 8.703125 -11.015625 C 8.015625 -11.015625 7.34375 -10.460938 6.6875 -9.359375 C 6.03125 -8.265625 5.492188 -6.929688 5.078125 -5.359375 C 4.671875 -3.785156 4.46875 -2.351562 4.46875 -1.0625 C 4.46875 -0.914062 4.488281 -0.5625 4.53125 0 L 2.484375 0 C 2.460938 -0.144531 2.453125 -0.359375 2.453125 -0.640625 C 2.453125 -1.640625 2.585938 -3.320312 2.859375 -5.6875 L 3.171875 -8.53125 C 3.265625 -9.382812 3.3125 -9.953125 3.3125 -10.234375 C 3.3125 -10.578125 3.265625 -10.847656 3.171875 -11.046875 C 3.085938 -11.242188 2.914062 -11.34375 2.65625 -11.34375 C 2.34375 -11.34375 2.019531 -11.144531 1.6875 -10.75 C 1.363281 -10.351562 1.085938 -9.753906 0.859375 -8.953125 L 0.171875 -9.09375 C 0.253906 -9.550781 0.429688 -10.050781 0.703125 -10.59375 C 0.972656 -11.132812 1.332031 -11.597656 1.78125 -11.984375 C 2.226562 -12.367188 2.757812 -12.5625 3.375 -12.5625 C 4.007812 -12.5625 4.46875 -12.359375 4.75 -11.953125 C 5.03125 -11.546875 5.171875 -10.957031 5.171875 -10.1875 C 5.171875 -9.425781 5.046875 -8.429688 4.796875 -7.203125 L 4.875 -7.203125 C 5.539062 -9.191406 6.257812 -10.582031 7.03125 -11.375 C 7.800781 -12.164062 8.628906 -12.5625 9.515625 -12.5625 Z M 9.515625 -12.5625 "/></g></g></g><g fill="#000000" fill-opacity="1"><g transform="translate(552.857723, 87.185333)"><g><path d="M 5.09375 -18.5625 C 4.957031 -17.90625 4.773438 -16.726562 4.546875 -15.03125 L 4.46875 -14.390625 C 4.175781 -12.109375 3.941406 -9.671875 3.765625 -7.078125 L 3.84375 -7.078125 C 4.53125 -9.128906 5.265625 -10.554688 6.046875 -11.359375 C 6.835938 -12.160156 7.707031 -12.5625 8.65625 -12.5625 C 9.445312 -12.5625 10.039062 -12.300781 10.4375 -11.78125 C 10.84375 -11.269531 11.046875 -10.644531 11.046875 -9.90625 C 11.046875 -9.300781 10.867188 -8.691406 10.515625 -8.078125 C 10.160156 -7.460938 9.625 -6.910156 8.90625 -6.421875 C 8.1875 -5.941406 7.316406 -5.613281 6.296875 -5.4375 L 6.296875 -5.40625 C 6.847656 -5.394531 7.273438 -5.257812 7.578125 -5 C 7.890625 -4.75 8.179688 -4.3125 8.453125 -3.6875 C 8.867188 -2.769531 9.191406 -2.109375 9.421875 -1.703125 C 9.660156 -1.304688 9.945312 -1.109375 10.28125 -1.109375 C 10.539062 -1.109375 10.757812 -1.222656 10.9375 -1.453125 C 11.125 -1.691406 11.28125 -2.082031 11.40625 -2.625 L 12.09375 -2.515625 C 11.9375 -1.722656 11.628906 -1.0625 11.171875 -0.53125 C 10.722656 0 10.144531 0.265625 9.4375 0.265625 C 8.832031 0.265625 8.320312 0.0195312 7.90625 -0.46875 C 7.488281 -0.957031 7.054688 -1.785156 6.609375 -2.953125 C 6.285156 -3.835938 5.992188 -4.441406 5.734375 -4.765625 C 5.484375 -5.097656 5.140625 -5.269531 4.703125 -5.28125 L 4.0625 -5.265625 C 3.664062 -3.816406 3.46875 -2.492188 3.46875 -1.296875 C 3.46875 -0.992188 3.484375 -0.5625 3.515625 0 L 1.5 0 C 1.476562 -0.144531 1.46875 -0.359375 1.46875 -0.640625 C 1.46875 -1.890625 1.601562 -4.265625 1.875 -7.765625 C 2.144531 -11.265625 2.421875 -13.914062 2.703125 -15.71875 C 2.734375 -15.914062 2.804688 -16.347656 2.921875 -17.015625 L 1.203125 -16.921875 L 1.296875 -17.90625 C 2.265625 -17.90625 2.957031 -17.960938 3.375 -18.078125 C 3.800781 -18.191406 4.132812 -18.351562 4.375 -18.5625 Z M 8 -11.40625 C 7.34375 -11.40625 6.664062 -10.878906 5.96875 -9.828125 C 5.28125 -8.785156 4.707031 -7.5 4.25 -5.96875 L 4.28125 -5.96875 C 5.820312 -5.96875 7 -6.300781 7.8125 -6.96875 C 8.632812 -7.632812 9.046875 -8.597656 9.046875 -9.859375 C 9.046875 -10.273438 8.972656 -10.632812 8.828125 -10.9375 C 8.679688 -11.25 8.40625 -11.40625 8 -11.40625 Z M 8 -11.40625 "/></g></g></g><g fill="#000000" fill-opacity="1"><g transform="translate(568.597302, 87.185333)"><g><path d="M 6.9375 -12.5625 C 7.914062 -12.5625 8.734375 -12.332031 9.390625 -11.875 C 10.046875 -11.414062 10.375 -10.703125 10.375 -9.734375 C 10.375 -8.523438 9.644531 -7.582031 8.1875 -6.90625 C 6.726562 -6.238281 5.039062 -5.796875 3.125 -5.578125 C 3.125 -4.035156 3.351562 -2.878906 3.8125 -2.109375 C 4.269531 -1.335938 4.972656 -0.953125 5.921875 -0.953125 C 6.679688 -0.953125 7.410156 -1.203125 8.109375 -1.703125 C 8.816406 -2.203125 9.429688 -2.945312 9.953125 -3.9375 L 10.765625 -3.46875 C 10.078125 -2.175781 9.304688 -1.226562 8.453125 -0.625 C 7.609375 -0.03125 6.628906 0.265625 5.515625 0.265625 C 4.003906 0.265625 2.863281 -0.203125 2.09375 -1.140625 C 1.332031 -2.085938 0.953125 -3.390625 0.953125 -5.046875 C 0.953125 -6.367188 1.175781 -7.597656 1.625 -8.734375 C 2.082031 -9.878906 2.757812 -10.800781 3.65625 -11.5 C 4.5625 -12.207031 5.65625 -12.5625 6.9375 -12.5625 Z M 6.59375 -11.734375 C 5.539062 -11.734375 4.726562 -11.222656 4.15625 -10.203125 C 3.582031 -9.191406 3.242188 -7.945312 3.140625 -6.46875 C 4.566406 -6.664062 5.789062 -7.054688 6.8125 -7.640625 C 7.832031 -8.234375 8.34375 -8.972656 8.34375 -9.859375 C 8.34375 -10.398438 8.1875 -10.847656 7.875 -11.203125 C 7.570312 -11.554688 7.144531 -11.734375 6.59375 -11.734375 Z M 6.59375 -11.734375 "/></g></g></g><g fill="#000000" fill-opacity="1"><g transform="translate(583.279375, 87.185333)"><g><path d="M 4.890625 -12.296875 L 8.796875 -12.296875 L 8.734375 -11.359375 L 4.796875 -11.3125 L 4.625 -9.734375 C 4.257812 -6.617188 4.078125 -4.414062 4.078125 -3.125 C 4.078125 -2.488281 4.148438 -1.972656 4.296875 -1.578125 C 4.453125 -1.179688 4.765625 -0.984375 5.234375 -0.984375 C 6.085938 -0.984375 6.859375 -1.554688 7.546875 -2.703125 L 8.1875 -2.28125 C 7.675781 -1.414062 7.144531 -0.773438 6.59375 -0.359375 C 6.050781 0.0546875 5.398438 0.265625 4.640625 0.265625 C 3.742188 0.265625 3.09375 -0.00390625 2.6875 -0.546875 C 2.289062 -1.085938 2.09375 -1.78125 2.09375 -2.625 C 2.09375 -3.582031 2.148438 -4.832031 2.265625 -6.375 C 2.378906 -7.925781 2.535156 -9.5625 2.734375 -11.28125 L 0.546875 -11.265625 L 0.609375 -12.296875 C 1.597656 -12.296875 2.394531 -12.585938 3 -13.171875 C 3.601562 -13.753906 4.070312 -14.617188 4.40625 -15.765625 L 5.34375 -15.765625 Z M 4.890625 -12.296875 "/></g></g></g><g fill="#000000" fill-opacity="1"><g transform="translate(595.182431, 87.185333)"><g><path d="M 9.609375 -12.5625 C 10.691406 -12.5625 11.515625 -12.109375 12.078125 -11.203125 C 12.648438 -10.304688 12.9375 -9.171875 12.9375 -7.796875 C 12.9375 -6.191406 12.65625 -4.78125 12.09375 -3.5625 C 11.539062 -2.351562 10.71875 -1.410156 9.625 -0.734375 C 8.539062 -0.0664062 7.226562 0.265625 5.6875 0.265625 C 5.289062 0.265625 4.90625 0.242188 4.53125 0.203125 L 4.328125 3.296875 C 4.304688 3.410156 4.296875 3.59375 4.296875 3.84375 C 4.265625 4.476562 4.207031 4.976562 4.125 5.34375 L 5.6875 5.265625 L 5.6875 6.265625 L 1.03125 6.265625 L 1.03125 5.53125 C 1.425781 5.53125 1.722656 5.40625 1.921875 5.15625 C 2.117188 4.914062 2.253906 4.601562 2.328125 4.21875 C 2.398438 3.832031 2.460938 3.285156 2.515625 2.578125 C 2.515625 2.367188 2.519531 2.207031 2.53125 2.09375 C 2.675781 0.351562 2.898438 -2.128906 3.203125 -5.359375 C 3.460938 -8.066406 3.59375 -9.625 3.59375 -10.03125 C 3.59375 -10.457031 3.550781 -10.78125 3.46875 -11 C 3.382812 -11.226562 3.203125 -11.34375 2.921875 -11.34375 C 2.609375 -11.34375 2.289062 -11.144531 1.96875 -10.75 C 1.65625 -10.351562 1.382812 -9.753906 1.15625 -8.953125 L 0.4375 -9.09375 C 0.519531 -9.550781 0.695312 -10.050781 0.96875 -10.59375 C 1.238281 -11.132812 1.597656 -11.597656 2.046875 -11.984375 C 2.503906 -12.367188 3.035156 -12.5625 3.640625 -12.5625 C 4.890625 -12.5625 5.515625 -11.703125 5.515625 -9.984375 C 5.515625 -9.265625 5.398438 -8.332031 5.171875 -7.1875 L 5.234375 -7.1875 C 5.859375 -9.25 6.53125 -10.660156 7.25 -11.421875 C 7.976562 -12.179688 8.765625 -12.5625 9.609375 -12.5625 Z M 9.09375 -11.40625 C 8.519531 -11.40625 7.945312 -11.007812 7.375 -10.21875 C 6.800781 -9.425781 6.289062 -8.394531 5.84375 -7.125 C 5.40625 -5.851562 5.082031 -4.546875 4.875 -3.203125 C 4.769531 -2.628906 4.675781 -1.847656 4.59375 -0.859375 C 5.1875 -0.660156 5.6875 -0.5625 6.09375 -0.5625 C 7.175781 -0.5625 8.070312 -0.898438 8.78125 -1.578125 C 9.5 -2.265625 10.019531 -3.128906 10.34375 -4.171875 C 10.664062 -5.210938 10.828125 -6.273438 10.828125 -7.359375 C 10.828125 -8.617188 10.691406 -9.609375 10.421875 -10.328125 C 10.160156 -11.046875 9.71875 -11.40625 9.09375 -11.40625 Z M 9.09375 -11.40625 "/></g></g></g><g fill="#000000" fill-opacity="1"><g transform="translate(612.176264, 87.185333)"><g><path d="M 5 -16.828125 C 4.800781 -15.671875 4.675781 -14.859375 4.625 -14.390625 C 4.363281 -12.472656 4.113281 -10.242188 3.875 -7.703125 C 3.632812 -5.171875 3.515625 -3.347656 3.515625 -2.234375 C 3.515625 -1.828125 3.554688 -1.507812 3.640625 -1.28125 C 3.722656 -1.0625 3.90625 -0.953125 4.1875 -0.953125 C 4.488281 -0.953125 4.800781 -1.144531 5.125 -1.53125 C 5.457031 -1.914062 5.738281 -2.519531 5.96875 -3.34375 L 6.671875 -3.171875 C 6.585938 -2.710938 6.410156 -2.21875 6.140625 -1.6875 C 5.878906 -1.15625 5.523438 -0.695312 5.078125 -0.3125 C 4.628906 0.0703125 4.101562 0.265625 3.5 0.265625 C 2.800781 0.265625 2.296875 0.0859375 1.984375 -0.265625 C 1.679688 -0.628906 1.53125 -1.179688 1.53125 -1.921875 C 1.53125 -3.003906 1.671875 -4.992188 1.953125 -7.890625 C 2.242188 -10.796875 2.546875 -13.394531 2.859375 -15.6875 L 3.078125 -17.015625 L 1.328125 -16.921875 L 1.453125 -17.90625 C 2.421875 -17.90625 3.117188 -17.960938 3.546875 -18.078125 C 3.972656 -18.191406 4.316406 -18.351562 4.578125 -18.5625 L 5.265625 -18.5625 Z M 5 -16.828125 "/></g></g></g><g fill="#000000" fill-opacity="1"><g transform="translate(622.087275, 87.185333)"><g><path d="M 8.09375 -12.5625 C 9.207031 -12.5625 10.304688 -12.425781 11.390625 -12.15625 C 10.671875 -6.800781 10.3125 -3.519531 10.3125 -2.3125 C 10.3125 -1.882812 10.347656 -1.550781 10.421875 -1.3125 C 10.503906 -1.070312 10.695312 -0.953125 11 -0.953125 C 11.300781 -0.953125 11.613281 -1.148438 11.9375 -1.546875 C 12.269531 -1.941406 12.550781 -2.539062 12.78125 -3.34375 L 13.484375 -3.203125 C 13.398438 -2.742188 13.222656 -2.242188 12.953125 -1.703125 C 12.679688 -1.160156 12.316406 -0.695312 11.859375 -0.3125 C 11.410156 0.0703125 10.882812 0.265625 10.28125 0.265625 C 9.0625 0.265625 8.453125 -0.46875 8.453125 -1.9375 C 8.453125 -2.664062 8.601562 -3.765625 8.90625 -5.234375 L 8.828125 -5.234375 C 8.140625 -3.066406 7.382812 -1.609375 6.5625 -0.859375 C 5.75 -0.109375 4.90625 0.265625 4.03125 0.265625 C 3.082031 0.265625 2.320312 -0.078125 1.75 -0.765625 C 1.1875 -1.453125 0.90625 -2.535156 0.90625 -4.015625 C 0.90625 -5.585938 1.175781 -7.019531 1.71875 -8.3125 C 2.257812 -9.601562 3.070312 -10.632812 4.15625 -11.40625 C 5.238281 -12.175781 6.550781 -12.5625 8.09375 -12.5625 Z M 7.328125 -11.6875 C 6.378906 -11.6875 5.578125 -11.34375 4.921875 -10.65625 C 4.265625 -9.976562 3.773438 -9.085938 3.453125 -7.984375 C 3.128906 -6.878906 2.96875 -5.691406 2.96875 -4.421875 C 2.96875 -2.015625 3.503906 -0.8125 4.578125 -0.8125 C 5.296875 -0.8125 6.015625 -1.375 6.734375 -2.5 C 7.460938 -3.632812 8.0625 -5.035156 8.53125 -6.703125 C 9.007812 -8.367188 9.25 -9.929688 9.25 -11.390625 C 8.757812 -11.585938 8.117188 -11.6875 7.328125 -11.6875 Z M 7.328125 -11.6875 "/></g></g></g><g fill="#000000" fill-opacity="1"><g transform="translate(638.515455, 87.185333)"><g><path d="M 6.84375 -12.5625 C 7.53125 -12.5625 8.15625 -12.4375 8.71875 -12.1875 C 9.28125 -11.9375 9.722656 -11.59375 10.046875 -11.15625 C 10.367188 -10.71875 10.53125 -10.226562 10.53125 -9.6875 C 10.53125 -9.3125 10.429688 -9.015625 10.234375 -8.796875 C 10.035156 -8.585938 9.769531 -8.484375 9.4375 -8.484375 C 9.113281 -8.484375 8.863281 -8.585938 8.6875 -8.796875 C 8.519531 -9.015625 8.4375 -9.238281 8.4375 -9.46875 C 8.4375 -9.863281 8.539062 -10.175781 8.75 -10.40625 C 8.664062 -10.84375 8.445312 -11.164062 8.09375 -11.375 C 7.75 -11.59375 7.320312 -11.703125 6.8125 -11.703125 C 5.519531 -11.703125 4.582031 -11.09375 4 -9.875 C 3.414062 -8.664062 3.125 -7.269531 3.125 -5.6875 C 3.125 -4.039062 3.390625 -2.835938 3.921875 -2.078125 C 4.453125 -1.316406 5.1875 -0.9375 6.125 -0.9375 C 6.84375 -0.9375 7.535156 -1.175781 8.203125 -1.65625 C 8.878906 -2.144531 9.441406 -2.9375 9.890625 -4.03125 L 10.75 -3.609375 C 10.15625 -2.253906 9.421875 -1.269531 8.546875 -0.65625 C 7.679688 -0.0390625 6.734375 0.265625 5.703125 0.265625 C 4.210938 0.265625 3.046875 -0.175781 2.203125 -1.0625 C 1.367188 -1.957031 0.953125 -3.304688 0.953125 -5.109375 C 0.953125 -6.265625 1.171875 -7.414062 1.609375 -8.5625 C 2.046875 -9.707031 2.707031 -10.660156 3.59375 -11.421875 C 4.476562 -12.179688 5.5625 -12.5625 6.84375 -12.5625 Z M 6.84375 -12.5625 "/></g></g></g><g fill="#000000" fill-opacity="1"><g transform="translate(653.099154, 87.185333)"><g><path d="M 6.9375 -12.5625 C 7.914062 -12.5625 8.734375 -12.332031 9.390625 -11.875 C 10.046875 -11.414062 10.375 -10.703125 10.375 -9.734375 C 10.375 -8.523438 9.644531 -7.582031 8.1875 -6.90625 C 6.726562 -6.238281 5.039062 -5.796875 3.125 -5.578125 C 3.125 -4.035156 3.351562 -2.878906 3.8125 -2.109375 C 4.269531 -1.335938 4.972656 -0.953125 5.921875 -0.953125 C 6.679688 -0.953125 7.410156 -1.203125 8.109375 -1.703125 C 8.816406 -2.203125 9.429688 -2.945312 9.953125 -3.9375 L 10.765625 -3.46875 C 10.078125 -2.175781 9.304688 -1.226562 8.453125 -0.625 C 7.609375 -0.03125 6.628906 0.265625 5.515625 0.265625 C 4.003906 0.265625 2.863281 -0.203125 2.09375 -1.140625 C 1.332031 -2.085938 0.953125 -3.390625 0.953125 -5.046875 C 0.953125 -6.367188 1.175781 -7.597656 1.625 -8.734375 C 2.082031 -9.878906 2.757812 -10.800781 3.65625 -11.5 C 4.5625 -12.207031 5.65625 -12.5625 6.9375 -12.5625 Z M 6.59375 -11.734375 C 5.539062 -11.734375 4.726562 -11.222656 4.15625 -10.203125 C 3.582031 -9.191406 3.242188 -7.945312 3.140625 -6.46875 C 4.566406 -6.664062 5.789062 -7.054688 6.8125 -7.640625 C 7.832031 -8.234375 8.34375 -8.972656 8.34375 -9.859375 C 8.34375 -10.398438 8.1875 -10.847656 7.875 -11.203125 C 7.570312 -11.554688 7.144531 -11.734375 6.59375 -11.734375 Z M 6.59375 -11.734375 "/></g></g></g><g fill="#000000" fill-opacity="1"><g transform="translate(667.781234, 87.185333)"><g/></g></g><g fill="#000000" fill-opacity="1"><g transform="translate(677.200395, 87.185333)"><g><path d="M 7.875 -18.6875 C 8.445312 -18.6875 8.890625 -18.578125 9.203125 -18.359375 C 9.515625 -18.140625 9.671875 -17.820312 9.671875 -17.40625 C 9.671875 -17.175781 9.59375 -16.953125 9.4375 -16.734375 C 9.28125 -16.523438 9.046875 -16.421875 8.734375 -16.421875 C 8.398438 -16.421875 8.140625 -16.535156 7.953125 -16.765625 C 7.765625 -17.003906 7.679688 -17.300781 7.703125 -17.65625 C 7.597656 -17.71875 7.40625 -17.75 7.125 -17.75 C 6.351562 -17.75 5.800781 -17.289062 5.46875 -16.375 C 5.132812 -15.457031 4.894531 -14.097656 4.75 -12.296875 L 8.234375 -12.296875 L 8.171875 -11.34375 L 4.671875 -11.28125 L 4.59375 -9.90625 C 4.476562 -7.988281 4.390625 -6.617188 4.328125 -5.796875 L 4.1875 -4.0625 C 3.988281 -1.644531 3.753906 0.257812 3.484375 1.65625 C 3.222656 3.0625 2.734375 4.25 2.015625 5.21875 C 1.296875 6.1875 0.238281 6.671875 -1.15625 6.671875 C -1.78125 6.671875 -2.253906 6.5625 -2.578125 6.34375 C -2.910156 6.132812 -3.078125 5.816406 -3.078125 5.390625 C -3.078125 5.160156 -2.992188 4.929688 -2.828125 4.703125 C -2.660156 4.484375 -2.421875 4.375 -2.109375 4.375 C -1.796875 4.375 -1.550781 4.476562 -1.375 4.6875 C -1.195312 4.894531 -1.109375 5.171875 -1.109375 5.515625 C -0.929688 5.640625 -0.691406 5.703125 -0.390625 5.703125 C 0.191406 5.703125 0.640625 5.378906 0.953125 4.734375 C 1.265625 4.085938 1.484375 3.242188 1.609375 2.203125 C 1.742188 1.171875 1.890625 -0.359375 2.046875 -2.390625 C 2.140625 -4.023438 2.226562 -5.238281 2.3125 -6.03125 L 2.453125 -7.796875 C 2.535156 -9.023438 2.632812 -10.179688 2.75 -11.265625 L 0.59375 -11.234375 L 0.71875 -12.296875 L 2.875 -12.296875 C 3.164062 -14.328125 3.679688 -15.898438 4.421875 -17.015625 C 5.160156 -18.128906 6.3125 -18.6875 7.875 -18.6875 Z M 7.875 -18.6875 "/></g></g></g><g fill="#000000" fill-opacity="1"><g transform="translate(688.144322, 87.185333)"><g><path d="M 7.03125 -12.5625 C 7.914062 -12.5625 8.710938 -12.347656 9.421875 -11.921875 C 10.140625 -11.492188 10.695312 -10.875 11.09375 -10.0625 C 11.5 -9.257812 11.703125 -8.300781 11.703125 -7.1875 C 11.703125 -5.84375 11.457031 -4.601562 10.96875 -3.46875 C 10.488281 -2.332031 9.796875 -1.425781 8.890625 -0.75 C 7.984375 -0.0703125 6.914062 0.265625 5.6875 0.265625 C 4.125 0.265625 2.941406 -0.242188 2.140625 -1.265625 C 1.347656 -2.285156 0.953125 -3.609375 0.953125 -5.234375 C 0.953125 -6.578125 1.195312 -7.804688 1.6875 -8.921875 C 2.1875 -10.035156 2.894531 -10.921875 3.8125 -11.578125 C 4.726562 -12.234375 5.800781 -12.5625 7.03125 -12.5625 Z M 6.640625 -11.65625 C 5.921875 -11.65625 5.289062 -11.394531 4.75 -10.875 C 4.21875 -10.363281 3.8125 -9.660156 3.53125 -8.765625 C 3.257812 -7.867188 3.125 -6.875 3.125 -5.78125 C 3.125 -4.414062 3.34375 -3.21875 3.78125 -2.1875 C 4.226562 -1.164062 4.953125 -0.65625 5.953125 -0.65625 C 6.785156 -0.65625 7.46875 -0.972656 8 -1.609375 C 8.53125 -2.253906 8.921875 -3.046875 9.171875 -3.984375 C 9.421875 -4.921875 9.546875 -5.832031 9.546875 -6.71875 C 9.546875 -8.09375 9.328125 -9.257812 8.890625 -10.21875 C 8.453125 -11.175781 7.703125 -11.65625 6.640625 -11.65625 Z M 6.640625 -11.65625 "/></g></g></g><g fill="#000000" fill-opacity="1"><g transform="translate(703.9085, 87.185333)"><g><path d="M 9.515625 -12.5625 C 10.023438 -12.5625 10.4375 -12.4375 10.75 -12.1875 C 11.070312 -11.9375 11.234375 -11.585938 11.234375 -11.140625 C 11.234375 -10.828125 11.125 -10.550781 10.90625 -10.3125 C 10.695312 -10.070312 10.429688 -9.953125 10.109375 -9.953125 C 9.816406 -9.953125 9.5625 -10.039062 9.34375 -10.21875 C 9.132812 -10.40625 9.015625 -10.664062 8.984375 -11 C 8.910156 -11.007812 8.816406 -11.015625 8.703125 -11.015625 C 8.015625 -11.015625 7.34375 -10.460938 6.6875 -9.359375 C 6.03125 -8.265625 5.492188 -6.929688 5.078125 -5.359375 C 4.671875 -3.785156 4.46875 -2.351562 4.46875 -1.0625 C 4.46875 -0.914062 4.488281 -0.5625 4.53125 0 L 2.484375 0 C 2.460938 -0.144531 2.453125 -0.359375 2.453125 -0.640625 C 2.453125 -1.640625 2.585938 -3.320312 2.859375 -5.6875 L 3.171875 -8.53125 C 3.265625 -9.382812 3.3125 -9.953125 3.3125 -10.234375 C 3.3125 -10.578125 3.265625 -10.847656 3.171875 -11.046875 C 3.085938 -11.242188 2.914062 -11.34375 2.65625 -11.34375 C 2.34375 -11.34375 2.019531 -11.144531 1.6875 -10.75 C 1.363281 -10.351562 1.085938 -9.753906 0.859375 -8.953125 L 0.171875 -9.09375 C 0.253906 -9.550781 0.429688 -10.050781 0.703125 -10.59375 C 0.972656 -11.132812 1.332031 -11.597656 1.78125 -11.984375 C 2.226562 -12.367188 2.757812 -12.5625 3.375 -12.5625 C 4.007812 -12.5625 4.46875 -12.359375 4.75 -11.953125 C 5.03125 -11.546875 5.171875 -10.957031 5.171875 -10.1875 C 5.171875 -9.425781 5.046875 -8.429688 4.796875 -7.203125 L 4.875 -7.203125 C 5.539062 -9.191406 6.257812 -10.582031 7.03125 -11.375 C 7.800781 -12.164062 8.628906 -12.5625 9.515625 -12.5625 Z M 9.515625 -12.5625 "/></g></g></g><g fill="#000000" fill-opacity="1"><g transform="translate(718.049531, 87.185333)"><g/></g></g><g fill="#000000" fill-opacity="1"><g transform="translate(727.468692, 87.185333)"><g><path d="M 9.5 -12.5625 C 10.1875 -12.5625 10.679688 -12.257812 10.984375 -11.65625 C 11.296875 -11.050781 11.453125 -10.304688 11.453125 -9.421875 C 11.453125 -7.929688 11.15625 -6.367188 10.5625 -4.734375 C 9.976562 -3.097656 9.1875 -1.378906 8.1875 0.421875 C 7.007812 2.585938 5.882812 4.171875 4.8125 5.171875 C 3.75 6.171875 2.710938 6.671875 1.703125 6.671875 C 1.109375 6.671875 0.625 6.519531 0.25 6.21875 C -0.113281 5.925781 -0.296875 5.554688 -0.296875 5.109375 C -0.296875 4.765625 -0.191406 4.488281 0.015625 4.28125 C 0.234375 4.082031 0.46875 3.984375 0.71875 3.984375 C 1.0625 3.984375 1.328125 4.09375 1.515625 4.3125 C 1.703125 4.53125 1.785156 4.847656 1.765625 5.265625 C 1.992188 5.378906 2.175781 5.4375 2.3125 5.4375 C 2.9375 5.46875 3.601562 5.070312 4.3125 4.25 C 5.03125 3.4375 5.617188 2.632812 6.078125 1.84375 C 5.773438 -0.175781 5.363281 -2.207031 4.84375 -4.25 C 4.320312 -6.300781 3.734375 -8.125 3.078125 -9.71875 C 2.878906 -10.144531 2.707031 -10.457031 2.5625 -10.65625 C 2.414062 -10.863281 2.207031 -10.96875 1.9375 -10.96875 C 1.664062 -10.96875 1.441406 -10.796875 1.265625 -10.453125 C 1.097656 -10.109375 1.015625 -9.640625 1.015625 -9.046875 C 1.015625 -8.765625 1.019531 -8.550781 1.03125 -8.40625 L 0.25 -8.3125 C 0.226562 -8.476562 0.21875 -8.722656 0.21875 -9.046875 C 0.21875 -10.015625 0.394531 -10.84375 0.75 -11.53125 C 1.101562 -12.21875 1.679688 -12.5625 2.484375 -12.5625 C 3.222656 -12.5625 3.796875 -12.300781 4.203125 -11.78125 C 4.617188 -11.269531 4.972656 -10.601562 5.265625 -9.78125 C 5.585938 -8.894531 5.878906 -7.941406 6.140625 -6.921875 C 6.410156 -5.898438 6.722656 -4.582031 7.078125 -2.96875 C 7.179688 -2.5 7.304688 -1.664062 7.453125 -0.46875 L 7.5 -0.46875 C 8.289062 -1.84375 8.957031 -3.285156 9.5 -4.796875 C 10.039062 -6.316406 10.3125 -7.691406 10.3125 -8.921875 C 10.3125 -9.316406 10.269531 -9.671875 10.1875 -9.984375 C 10.113281 -10.296875 10.03125 -10.523438 9.9375 -10.671875 C 9.789062 -10.578125 9.585938 -10.53125 9.328125 -10.53125 C 9.023438 -10.53125 8.785156 -10.625 8.609375 -10.8125 C 8.429688 -11 8.34375 -11.222656 8.34375 -11.484375 C 8.34375 -11.828125 8.457031 -12.09375 8.6875 -12.28125 C 8.914062 -12.46875 9.1875 -12.5625 9.5 -12.5625 Z M 9.5 -12.5625 "/></g></g></g><g fill="#000000" fill-opacity="1"><g transform="translate(743.060719, 87.185333)"><g><path d="M 7.03125 -12.5625 C 7.914062 -12.5625 8.710938 -12.347656 9.421875 -11.921875 C 10.140625 -11.492188 10.695312 -10.875 11.09375 -10.0625 C 11.5 -9.257812 11.703125 -8.300781 11.703125 -7.1875 C 11.703125 -5.84375 11.457031 -4.601562 10.96875 -3.46875 C 10.488281 -2.332031 9.796875 -1.425781 8.890625 -0.75 C 7.984375 -0.0703125 6.914062 0.265625 5.6875 0.265625 C 4.125 0.265625 2.941406 -0.242188 2.140625 -1.265625 C 1.347656 -2.285156 0.953125 -3.609375 0.953125 -5.234375 C 0.953125 -6.578125 1.195312 -7.804688 1.6875 -8.921875 C 2.1875 -10.035156 2.894531 -10.921875 3.8125 -11.578125 C 4.726562 -12.234375 5.800781 -12.5625 7.03125 -12.5625 Z M 6.640625 -11.65625 C 5.921875 -11.65625 5.289062 -11.394531 4.75 -10.875 C 4.21875 -10.363281 3.8125 -9.660156 3.53125 -8.765625 C 3.257812 -7.867188 3.125 -6.875 3.125 -5.78125 C 3.125 -4.414062 3.34375 -3.21875 3.78125 -2.1875 C 4.226562 -1.164062 4.953125 -0.65625 5.953125 -0.65625 C 6.785156 -0.65625 7.46875 -0.972656 8 -1.609375 C 8.53125 -2.253906 8.921875 -3.046875 9.171875 -3.984375 C 9.421875 -4.921875 9.546875 -5.832031 9.546875 -6.71875 C 9.546875 -8.09375 9.328125 -9.257812 8.890625 -10.21875 C 8.453125 -11.175781 7.703125 -11.65625 6.640625 -11.65625 Z M 6.640625 -11.65625 "/></g></g></g><g fill="#000000" fill-opacity="1"><g transform="translate(758.824897, 87.185333)"><g><path d="M 3.265625 -12.5625 C 3.921875 -12.5625 4.414062 -12.359375 4.75 -11.953125 C 5.09375 -11.546875 5.265625 -10.957031 5.265625 -10.1875 C 5.265625 -9.59375 5.132812 -8.363281 4.875 -6.5 C 4.851562 -6.34375 4.773438 -5.785156 4.640625 -4.828125 C 4.515625 -3.867188 4.453125 -3.070312 4.453125 -2.4375 C 4.453125 -2.039062 4.535156 -1.679688 4.703125 -1.359375 C 4.878906 -1.046875 5.179688 -0.890625 5.609375 -0.890625 C 6.328125 -0.890625 7.046875 -1.429688 7.765625 -2.515625 C 8.492188 -3.609375 9.085938 -4.945312 9.546875 -6.53125 C 10.015625 -8.125 10.25 -9.613281 10.25 -11 C 10.25 -11.300781 10.234375 -11.734375 10.203125 -12.296875 L 12.265625 -12.296875 C 12.285156 -12.148438 12.296875 -11.9375 12.296875 -11.65625 C 12.296875 -11.257812 12.253906 -10.648438 12.171875 -9.828125 C 12.085938 -9.015625 11.96875 -7.953125 11.8125 -6.640625 L 11.5625 -4.59375 C 11.539062 -4.382812 11.5 -3.992188 11.4375 -3.421875 C 11.375 -2.847656 11.34375 -2.394531 11.34375 -2.0625 C 11.34375 -1.34375 11.5625 -0.984375 12 -0.984375 C 12.3125 -0.984375 12.628906 -1.175781 12.953125 -1.5625 C 13.285156 -1.945312 13.566406 -2.539062 13.796875 -3.34375 L 14.484375 -3.203125 C 14.398438 -2.742188 14.222656 -2.242188 13.953125 -1.703125 C 13.679688 -1.160156 13.320312 -0.695312 12.875 -0.3125 C 12.425781 0.0703125 11.894531 0.265625 11.28125 0.265625 C 10.644531 0.265625 10.171875 0.0703125 9.859375 -0.3125 C 9.546875 -0.707031 9.390625 -1.25 9.390625 -1.9375 C 9.390625 -2.664062 9.539062 -3.765625 9.84375 -5.234375 L 9.765625 -5.234375 C 8.972656 -3.117188 8.21875 -1.671875 7.5 -0.890625 C 6.78125 -0.117188 5.984375 0.265625 5.109375 0.265625 C 4.191406 0.265625 3.515625 -0.03125 3.078125 -0.625 C 2.648438 -1.226562 2.4375 -1.992188 2.4375 -2.921875 C 2.4375 -3.628906 2.476562 -4.34375 2.5625 -5.0625 C 2.644531 -5.789062 2.765625 -6.660156 2.921875 -7.671875 C 2.953125 -7.847656 3.007812 -8.226562 3.09375 -8.8125 C 3.175781 -9.394531 3.21875 -9.851562 3.21875 -10.1875 C 3.21875 -10.5625 3.171875 -10.847656 3.078125 -11.046875 C 2.992188 -11.242188 2.820312 -11.34375 2.5625 -11.34375 C 2.257812 -11.34375 1.953125 -11.148438 1.640625 -10.765625 C 1.335938 -10.378906 1.070312 -9.773438 0.84375 -8.953125 L 0.140625 -9.09375 C 0.296875 -9.90625 0.640625 -10.6875 1.171875 -11.4375 C 1.703125 -12.1875 2.398438 -12.5625 3.265625 -12.5625 Z M 3.265625 -12.5625 "/></g></g></g><g fill="#000000" fill-opacity="1"><g transform="translate(496.785485, 185.44799)"><g><path d="M 26.5625 -8.691406 C 20.496094 -8.691406 15.246094 -11.722656 14.917969 -18.363281 L 2.460938 -18.363281 C 2.542969 -4.753906 13.773438 1.3125 26.070312 1.3125 C 37.464844 1.3125 49.1875 -3.523438 49.1875 -16.640625 C 49.1875 -37.875 16.96875 -30.742188 16.96875 -40.660156 C 16.96875 -44.839844 21.804688 -46.480469 25.25 -46.480469 C 31.398438 -46.480469 34.757812 -44.59375 35.414062 -38.773438 L 47.300781 -38.773438 C 46.890625 -51.480469 36.5625 -56.5625 25.085938 -56.5625 C 14.917969 -56.5625 4.261719 -51.152344 4.261719 -39.675781 C 4.261719 -19.101562 36.480469 -26.070312 36.480469 -15.246094 C 36.480469 -10.246094 30.414062 -8.691406 26.5625 -8.691406 Z M 26.5625 -8.691406 "/></g></g></g><g fill="#000000" fill-opacity="1"><g transform="translate(548.431039, 185.44799)"><g><path d="M 35.578125 -55.746094 L 35.578125 -33.527344 L 17.214844 -33.527344 L 17.214844 -55.746094 L 4.917969 -55.746094 L 4.917969 0 L 17.214844 0 L 17.214844 -22.378906 L 35.578125 -22.378906 L 35.578125 0 L 48.695312 0 L 48.695312 -55.746094 Z M 35.578125 -55.746094 "/></g></g></g><g fill="#000000" fill-opacity="1"><g transform="translate(602.044043, 185.44799)"><g><path d="M 17.214844 0 L 17.214844 -55.746094 L 4.917969 -55.746094 L 4.917969 0 Z M 17.214844 0 "/></g></g></g><g fill="#000000" fill-opacity="1"><g transform="translate(624.17785, 185.44799)"><g><path d="M 48.695312 0 L 48.695312 -55.746094 L 36.398438 -55.746094 L 36.398438 -20.984375 L 17.214844 -55.746094 L 4.917969 -55.746094 L 4.917969 0 L 17.214844 0 L 17.214844 -34.757812 L 36.398438 0 Z M 48.695312 0 "/></g></g></g><g fill="#000000" fill-opacity="1"><g transform="translate(677.790853, 185.44799)"><g><path d="M 37.21875 -11.148438 L 17.214844 -11.148438 L 17.214844 -22.378906 L 36.398438 -22.378906 L 36.398438 -33.527344 L 17.214844 -33.527344 L 17.214844 -44.59375 L 37.21875 -44.59375 L 37.21875 -55.746094 L 4.917969 -55.746094 L 4.917969 0 L 37.21875 0 Z M 37.21875 -11.148438 "/></g></g></g><g fill="#000000" fill-opacity="1"><g transform="translate(719.927074, 185.44799)"><g/></g></g><g fill="#000000" fill-opacity="1"><g transform="translate(740.421348, 185.44799)"><g><path d="M 47.957031 -27.953125 C 47.957031 -19.347656 40.167969 -11.476562 31.5625 -11.476562 C 22.953125 -11.476562 15.164062 -19.347656 15.164062 -27.953125 C 15.164062 -36.5625 22.953125 -44.351562 31.5625 -44.351562 C 40.167969 -44.351562 47.957031 -36.5625 47.957031 -27.953125 Z M 60.253906 -27.871094 C 60.253906 -43.285156 46.972656 -56.5625 31.5625 -56.5625 C 16.148438 -56.5625 2.871094 -43.285156 2.871094 -27.871094 C 2.871094 -12.460938 16.148438 0.820312 31.5625 0.820312 C 46.972656 0.820312 60.253906 -12.460938 60.253906 -27.871094 Z M 60.253906 -27.871094 "/></g></g></g><g fill="#000000" fill-opacity="1"><g transform="translate(803.5437, 185.44799)"><g><path d="M 48.695312 0 L 48.695312 -55.746094 L 36.398438 -55.746094 L 36.398438 -20.984375 L 17.214844 -55.746094 L 4.917969 -55.746094 L 4.917969 0 L 17.214844 0 L 17.214844 -34.757812 L 36.398438 0 Z M 48.695312 0 "/></g></g></g><g fill="#000000" fill-opacity="1"><g transform="translate(857.156703, 185.44799)"><g/></g></g><g fill="#ff3131" fill-opacity="1"><g transform="translate(877.659029, 185.44799)"><g><path d="M 21.230469 0 L 33.527344 0 L 33.527344 -26.640625 L 54.105469 -55.746094 L 39.429688 -55.746094 L 27.378906 -36.480469 L 15.328125 -55.746094 L 0.65625 -55.746094 L 21.230469 -26.640625 Z M 21.230469 0 "/></g></g></g><g fill="#ff3131" fill-opacity="1"><g transform="translate(932.419724, 185.44799)"><g><path d="M 47.957031 -27.953125 C 47.957031 -19.347656 40.167969 -11.476562 31.5625 -11.476562 C 22.953125 -11.476562 15.164062 -19.347656 15.164062 -27.953125 C 15.164062 -36.5625 22.953125 -44.351562 31.5625 -44.351562 C 40.167969 -44.351562 47.957031 -36.5625 47.957031 -27.953125 Z M 60.253906 -27.871094 C 60.253906 -43.285156 46.972656 -56.5625 31.5625 -56.5625 C 16.148438 -56.5625 2.871094 -43.285156 2.871094 -27.871094 C 2.871094 -12.460938 16.148438 0.820312 31.5625 0.820312 C 46.972656 0.820312 60.253906 -12.460938 60.253906 -27.871094 Z M 60.253906 -27.871094 "/></g></g></g><g fill="#ff3131" fill-opacity="1"><g transform="translate(995.542076, 185.44799)"><g><path d="M 37.464844 -55.746094 L 37.464844 -23.527344 C 37.464844 -15.820312 35.167969 -11.476562 26.722656 -11.476562 C 18.363281 -11.476562 15.984375 -15.820312 15.984375 -23.527344 L 15.984375 -55.746094 L 3.6875 -55.746094 L 3.6875 -21.722656 C 3.6875 -6.886719 12.214844 0.820312 26.722656 0.820312 C 41.234375 0.820312 49.761719 -6.886719 49.761719 -21.722656 L 49.761719 -55.746094 Z M 37.464844 -55.746094 "/></g></g></g></svg>